<svg viewBox="0 0 40 40" fill="none" xmlns="http://www.w3.org/2000/svg">
  <g clip-path="url(#clip0_21281_256)">
    <path
      d="M20 28C26.0751 28 31 23.0751 31 17C31 10.9249 26.0751 6 20 6C13.9249 6 9 10.9249 9 17C9 23.0751 13.9249 28 20 28Z"
      class="fill-(--icon-primary-color)"
      class="group-[.active]/icon:fill-secondary-default fill-primary-default" />
    <path
      d="M23.75 30H16.25C15.9185 30 15.6005 30.1317 15.3661 30.3661C15.1317 30.6005 15 30.9185 15 31.25C15 31.5815 15.1317 31.8995 15.3661 32.1339C15.6005 32.3683 15.9185 32.5 16.25 32.5H23.75C24.0815 32.5 24.3995 32.3683 24.6339 32.1339C24.8683 31.8995 25 31.5815 25 31.25C25 30.9185 24.8683 30.6005 24.6339 30.3661C24.3995 30.1317 24.0815 30 23.75 30Z"
      fill="#EEE1D9" />
    <path
      d="M20 32.5H17V33C17 33.2652 17.1054 33.5196 17.2929 33.7071C17.4804 33.8946 17.7348 34 18 34H22C22.2652 34 22.5196 33.8946 22.7071 33.7071C22.8946 33.5196 23 33.2652 23 33V32.5H20Z"
      fill="#C89E85" />
    <path
      d="M22 25C21.7348 25 21.4804 24.8946 21.2929 24.7071C21.1054 24.5196 21 24.2652 21 24V18.5C21 18.1022 21.158 17.7206 21.4393 17.4393C21.7206 17.158 22.1022 17 22.5 17H23.5C23.6326 17 23.7598 16.9473 23.8536 16.8536C23.9473 16.7598 24 16.6326 24 16.5C24 16.3674 23.9473 16.2402 23.8536 16.1464C23.7598 16.0527 23.6326 16 23.5 16H16.5C16.3674 16 16.2402 16.0527 16.1464 16.1464C16.0527 16.2402 16 16.3674 16 16.5C16 16.6326 16.0527 16.7598 16.1464 16.8536C16.2402 16.9473 16.3674 17 16.5 17H17.5C17.8978 17 18.2794 17.158 18.5607 17.4393C18.842 17.7206 19 18.1022 19 18.5V24C19 24.2652 18.8946 24.5196 18.7071 24.7071C18.5196 24.8946 18.2652 25 18 25C17.7348 25 17.4804 24.8946 17.2929 24.7071C17.1054 24.5196 17 24.2652 17 24V19H16.5C15.837 19 15.2011 18.7366 14.7322 18.2678C14.2634 17.7989 14 17.163 14 16.5C14 15.837 14.2634 15.2011 14.7322 14.7322C15.2011 14.2634 15.837 14 16.5 14H23.5C24.163 14 24.7989 14.2634 25.2678 14.7322C25.7366 15.2011 26 15.837 26 16.5C26 17.163 25.7366 17.7989 25.2678 18.2678C24.7989 18.7366 24.163 19 23.5 19H23V24C23 24.2652 22.8946 24.5196 22.7071 24.7071C22.5196 24.8946 22.2652 25 22 25Z"
      fill="white" />
  </g>
  <defs>
    <clipPath id="clip0_21281_256">
      <rect width="40" height="40" fill="white" />
    </clipPath>
  </defs>
</svg>
